<?xml version="1.0" standalone="no"?>
<!DOCTYPE svg PUBLIC "-//W3C//DTD SVG 1.1//EN" "http://www.w3.org/Graphics/SVG/1.1/DTD/svg11.dtd" >
<svg xmlns="http://www.w3.org/2000/svg">
<metadata>
This is a custom SVG font generated by IcoMoon.
<iconset grid="16"></iconset>
</metadata>
<defs>
<font id="icomoon" horiz-adv-x="512" >
<font-face units-per-em="512" ascent="480" descent="-32" />
<missing-glyph horiz-adv-x="512" />
<glyph class="hidden" unicode="&#xf000;" d="M0,480L 512 -32L0 -32 z" horiz-adv-x="0" />
<glyph unicode="&#xe001;" d="M 192,224A64,64 540 1 1 320,224A64,64 540 1 1 192,224zM0,224A64,64 540 1 1 128,224A64,64 540 1 1 0,224zM 384,224A64,64 540 1 1 512,224A64,64 540 1 1 384,224z"  />
<glyph unicode="&#xe002;" d="M 163.2,144l-51.168-51.168L0,208l 112.032,115.168L 163.2,272l-64-64L 163.2,144L 163.2,144z M 399.968,92.832L 348.8,144l 63.968,64l-63.968,64
	l 51.168,51.168L 512,208L 399.968,92.832L 399.968,92.832z M 256,32L 192,32 L 256,384l 64,0 L 256,32L 256,32z"  />
<glyph unicode="&#xe003;" d="M 400,387.2L 208.032,195.2L 112,291.2L 28.832,207.968L 124.832,111.968L 124.8,111.968L 208,28.768L 483.2,303.968 z"  />
<glyph unicode="&#xe008;" d="M 480,384L 32,384 C 14.336,384,0,369.664,0,352l0-288 c0-17.696, 14.336-32, 32-32l 448,0 c 17.696,0, 32,14.304, 32,32L 512,352 C 512,369.664, 497.696,384, 480,384z M 448,96l-96,0 L 352,192 l 96,0 L 448,96 z
	 M 448,256L 64,256 L 64,320 l 384,0 L 448,256 z"  />
<glyph unicode="&#xe009;" d="M 256-32c-141.376,0-256,114.624-256,256s 114.624,256, 256,256s 256-114.624, 256-256S 397.376-32, 256-32L 256-32z
	 M 360.544,328.992L 226.56,196.032L 159.52,262.976l-48-48l 115.008-115.008l 181.984,180.992L 360.544,328.992L 360.544,328.992z"  />
<glyph unicode="&#xe00a;" d="M 256-32c-141.376,0-256,114.624-256,256s 114.624,256, 256,256s 256-114.624, 256-256S 397.376-32, 256-32L 256-32z M 288,272
	L 288,352 L 224,352 l0-80 L 224,192 l 64,0 L 288,272 L 288,272z M 288,160L 224,160 l0-63.968 l 64,0 L 288,160 L 288,160z"  />
<glyph unicode="&#xe00b;" d="M 479.328,0.48L 30.88,0.48 c-27.648,0-39.2,19.584-25.888,43.712L 230.464,461.92
	c 13.344,24.128, 34.912,24.128, 48.224,0l 226.496-417.728C 518.496,20.064, 506.944,0.48, 479.328,0.48L 479.328,0.48z M 288.032,319.36L 224,319.36 l0-160 l 64,0 L 288,319.36 
	L 288.032,319.36z M 288.032,127.36L 224,127.36 l0-64 l 64,0 L 288,127.36 L 288.032,127.36z"  />
<glyph unicode="&#xe00c;" d="M 241.152,410.848C 243.648,417.088, 249.312,420.896, 256,420.896s 12.384-3.808, 14.848-10.048
	l 49.184-122.816l 113.984,0 c 6.944,0, 12.8-4.224, 15.104-10.752c 2.304-6.592, 0.256-13.472-5.184-17.824l-96.32-76.16l 43.2-115.776
	c 3.52-9.376, 0.672-19.424-7.296-25.568c-7.872-6.080-18.304-6.336-26.528-0.64L 256,112l-100.96-70.688c-8.224-5.728-18.656-5.472-26.56,0.64
	c-7.904,6.112-10.784,16.192-7.296,25.568l 43.2,115.776l-96.32,76.16C 62.656,263.776, 60.608,270.656, 62.912,277.28
	c 2.304,6.56, 8.16,10.752, 15.104,10.752l 113.984,0 L 241.152,410.848L 241.152,410.848z"  />
<glyph unicode="&#xe00d;" d="M 256,448L 320.032,288.032L 479.968,288.032L 347.584,183.296L 416,0.032L 256,112L 96,0.032L 164.416,183.296L 32,288.032L 191.968,288.032L 256,448 z"  />
<glyph unicode="&#xe00e;" d="M 448-32L 64-32 c-35.328,0-64,28.672-64,64L0,416 c0,35.328, 28.672,64, 64,64l 384,0 c 35.328,0, 64-28.672, 64-64l0-384 
	C 512-3.328, 483.328-32, 448-32L 448-32z M 399.328,273.664c-1.728,4.832-6.016,7.936-11.232,7.936L 303.424,281.6 l-36.384,91.2
	C 265.152,377.408, 260.992,380.256, 256,380.256c-4.992,0-9.152-2.816-11.072-7.488l-36.384-91.2L 123.872,281.568 c-5.184,0-9.472-3.072-11.168-7.936
	C 111.008,268.768, 112.416,263.616, 116.576,260.448l 71.424-56.512l-32.032-86.016c-2.592-7.008-0.544-14.432, 5.376-18.944
	c 5.92-4.544, 13.632-4.736, 19.712-0.544L 256,151.008l 74.944-52.544c 6.048-4.224, 13.824-4, 19.712,0.544
	c 5.952,4.512, 7.968,11.936, 5.376,18.944l-32.032,86.016l 71.424,56.512C 399.584,263.616, 400.992,268.768, 399.328,273.664L 399.328,273.664z"  />
<glyph unicode="&#xe00f;" d="M 256-32c-141.376,0-256,114.624-256,256s 114.624,256, 256,256s 256-114.624, 256-256S 397.376-32, 256-32L 256-32z
	 M 399.328,273.664c-1.728,4.832-6.016,7.936-11.232,7.936L 303.424,281.6 l-36.384,91.2C 265.152,377.408, 260.992,380.256, 256,380.256
	c-4.992,0-9.152-2.816-11.072-7.488l-36.384-91.2L 123.872,281.568 c-5.184,0-9.472-3.072-11.168-7.936C 111.008,268.768, 112.416,263.616, 116.576,260.448
	l 71.424-56.512l-32.032-86.016c-2.592-7.008-0.544-14.432, 5.376-18.944c 5.92-4.544, 13.632-4.736, 19.712-0.544L 256,151.008l 74.944-52.544
	c 6.048-4.224, 13.824-4, 19.712,0.544c 5.952,4.512, 7.968,11.936, 5.376,18.944l-32.032,86.016l 71.424,56.512
	C 399.584,263.616, 400.992,268.768, 399.328,273.664L 399.328,273.664z"  />
<glyph unicode="&#xe010;" d="M 442.688,325.312l-85.376,85.376L 426.688,480L 512,394.688L 442.688,325.312L 442.688,325.312z
	 M 394.656,277.344l-192-192L 117.344,170.688l 191.968,191.968L 394.656,277.344L 394.656,277.344z M 128,10.656L0-32l 42.656,128.032l 26.656,26.656l 85.376-85.376
	L 128,10.656L 128,10.656z"  />
<glyph unicode="&#xe014;" d="M 512.416,256l0-64 l-79.968-16l-17.632-42.496l 45.248-67.936l-45.248-45.248l-67.904,45.248
	L 304.416,48l-16-80l-64,0 l-16,80l-42.944,17.184L 97.6,19.936l-45.248,45.248l 45.248,67.872L 80.384,176L 0.416,192L 0.416,256 l 80,16l 17.6,42.528
	L 52.736,382.4l 45.248,45.248L 165.92,382.4L 208.416,400l 16,80l 64,0 l 16-80l 42.112-18.048l 67.84,45.28l 45.248-45.28l-45.248-67.84L 432.448,272
	L 512.416,256L 512.416,256z M 320,223.616c0,7.616,0,31.968,0,31.968l-31.968,32c0,0-21.28,0-32,0c-10.752,0-32.032,0-32.032,0l-32-32
	c0,0,0-10.080,0-31.968c0-11.36,0-32.064,0-32.064l 32-32c0,0, 21.728,0, 32.032,0c 10.304,0, 32,0, 32,0l 31.968,32C 320,191.552, 320,217.44, 320,223.616
	L 320,223.616z"  />
<glyph unicode="&#xe015;" d="M 512.416,256l0-64 l-79.968-16l-17.632-42.496l 45.248-67.936l-45.248-45.248l-67.904,45.248
	L 304.416,48l-16-80l-64,0 l-16,80l-42.944,17.184L 97.6,19.936l-45.248,45.248l 45.248,67.872L 80.384,176L 0.416,192L 0.416,256 l 80,16l 17.6,42.528
	L 52.736,382.4l 45.248,45.248L 165.92,382.4L 208.416,400l 16,80l 64,0 l 16-80l 42.112-18.048l 67.84,45.28l 45.248-45.28l-45.248-67.84L 432.448,272
	L 512.416,256L 512.416,256z M 256.032,319.584C 203.008,319.584, 160,276.576, 160,223.616c0-53.056, 43.008-96.064, 96.032-96.064C 308.992,127.552, 352,170.56, 352,223.616
	C 352,276.576, 308.992,319.584, 256.032,319.584L 256.032,319.584z"  />
<glyph unicode="&#xe018;" d="M 256-32c-141.376,0-256,114.624-256,256s 114.624,256, 256,256s 256-114.624, 256-256S 397.376-32, 256-32L 256-32z M 256,416
	C 149.984,416, 64,330.016, 64,224c0-105.984, 86.016-192, 192-192c 105.984,0, 192,86.016, 192,192C 448,330.016, 361.984,416, 256,416L 256,416z M 224,192L 224,224 L 224,352 l 64,0 l0-128 l 63.968,0 l0-64 L 224,160 L 224,192 L 224,192z"  />
<glyph unicode="&#xe019;" d="M 234.656-32L0,202.688L 256,480l 160.032,0 L 512,383.968L 512,224 L 234.656-32L 234.656-32z M 416.032,383.968l-64.064,0 
	l0-64 l 64.064,0 L 416.032,383.968 L 416.032,383.968z"  />
<glyph unicode="&#xe01a;" d="M 469.408,448L 42.624,448 C 19.072,448,0,428.928,0,405.312l0-330.624 c0-19.808, 13.76-35.744, 32-40.576L 32,32 l 10.624,0 l 426.784,0 L 480,32 l0,2.112 
	c 18.24,4.8, 32,20.736, 32,40.576L 512,405.312 C 512,428.928, 492.928,448, 469.408,448L 469.408,448z M 160,96.032L 64,96.032 L 64,256 L 160,256 L 160,96.032 L 160,96.032z M 448,96.032L 224,96.032 L 224,256 l 224,0 L 448,96.032 
	L 448,96.032z M 448,320L 64,320 L 64,384 l 384,0 L 448,320 L 448,320z"  />
<glyph unicode="&#xe01c;" d="M 96,128L 96,352 l 320,0 l0-224 L 96,128 L 96,128z M 288,288.032L 128,288.032 l0-32 l 160,0 L 288,288.032 L 288,288.032z M 288,224L 128,224 l0-32 l 160,0 L 288,224 L 288,224z M 384,256
	l-63.968,0 l0-64 L 384,192 L 384,256 L 384,256z"  />
<glyph unicode="&#xe01d;" d="M 416.032-32L 96-32 c-17.664,0-32,14.336-32,32L 64,448 c0,17.664, 14.336,32, 32,32l 128,0 c 17.664,0, 32-14.336, 32-32L 256,288 
	l 160.032,0 C 433.696,288, 448,273.696, 448,256l0-256 C 448-17.664, 433.696-32, 416.032-32L 416.032-32z M 192,416L 128,416 l0-32 l 64,0 L 192,416 L 192,416z M 192,320L 128,320 l0-32 l 64,0 L 192,320 L 192,320z M 383.968,224L 128,224 l0-32 
	l 255.968,0 L 383.968,224 L 383.968,224z M 383.968,128.032L 128,128.032 l0-32 l 255.968,0 L 383.968,128.032 L 383.968,128.032z M 320,480l 128-128l-128,0 L 320,480 L 320,480z"  />
<glyph unicode="&#xe01f;" d="M 352,304L 320,336L 240,256L 240,256L 240,256L 160,336L 128,304L 208,224L 128,144L 160,112L 240,192L 320,112L 352,144L 272,224 z"  />
<glyph unicode="&#xe020;" d="M 448.032,352L 384,416L 256,288.032L 128,416L 64,352L 191.968,224L 64,96L 128,31.968L 256,159.968L 384,31.968L 448.032,96L 320.032,224L 448.032,352 z"  />
<glyph unicode="&#xe023;" d="M 319.68,69.088l-2.144-2.624l-53.248-53.216l0,0.064 c-30.208-30.24-69.792-45.376-109.44-45.376c-39.648,0-79.296,15.136-109.472,45.376
	c-60.448,60.416-60.448,158.432,0,218.912L 45.312,232.224 L 98.56,285.44c 17.344,15.712, 43.776,16, 61.408,0.64c 17.664-15.36, 21.088-41.504, 7.936-60.896
	L 164.224,219.712L 111.040,166.496c-11.712-11.68-18.144-27.264-18.144-43.744s 6.464-32.064, 18.208-43.808c 11.648-11.68, 27.232-18.080, 43.744-18.080
	c 16.544,0, 32.064,6.4, 43.808,18.080l 53.152,53.248l 3.456,2.752c 18.56,14.784, 45.28,13.12, 61.856-3.808C 333.792,114.112, 334.848,87.36, 319.68,69.088
	L 319.68,69.088z M 466.656,215.68L 466.656,215.68l-53.152-53.184l-3.072-2.336c-18.208-14.016-43.904-12.544-60.416,3.456s-18.752,41.696-5.28,60.352
	l 3.072,4.192l 53.152,53.216c 11.712,11.712, 18.144,27.264, 18.144,43.808c0,16.48-6.432,32.032-18.176,43.808
	c-11.648,11.712-27.232,18.112-43.776,18.112c-16.544,0-32.032-6.4-43.744-18.144L 260.224,315.744L 255.552,312.352
	c-19.232-14.048-46.016-11.2-61.856,6.56S 178.080,363.616, 194.24,381.12l 0.288,0.352l 53.216,53.152C 277.952,464.864, 317.536,480, 357.152,480
	c 39.648,0, 79.328-15.136, 109.504-45.376C 527.104,374.176, 527.104,276.128, 466.656,215.68L 466.656,215.68z"  />
<glyph unicode="&#xe024;" d="M 263.872,13.28l-0.032,0.064l0,0L 263.872,13.28L 263.872,13.28z M 44.32,13.344c-60.64,60.448-60.64,158.432,0,218.88l 65.888-65.632
	c-11.744-11.712-18.208-27.328-18.208-43.808s 6.464-32.064, 18.208-43.744c 11.744-11.712, 27.328-18.144, 43.904-18.144s 32.16,6.432, 43.904,18.144
	l 65.856-65.696C 233.6-16.864, 193.856-32, 154.112-32C 114.368-32, 74.624-16.864, 44.32,13.344L 44.32,13.344z M 44.32,232.256l0-0.032 L 44.256,232.256L 44.32,232.256 
	L 44.32,232.256z M 466.816,215.776L 466.88,215.68l-65.952,65.728c 11.744,11.712, 18.208,27.328, 18.208,43.808c0,16.544-6.464,32.064-18.272,43.808
	c-11.616,11.68-27.264,18.112-43.84,18.112S 324.864,380.704, 313.12,368.96L 247.264,434.688C 277.536,464.864, 317.28,480, 357.024,480s 79.488-15.136, 109.792-45.28
	C 527.456,374.208, 527.456,276.16, 466.816,215.776L 466.816,215.776z M 413.056,67.104c-16.608-16.576-42.976-17.856-61.12-3.072l-256.896,256
	C 82.784,338.336, 85.184,362.656, 100.8,378.208C 116.416,393.792, 140.832,396.192, 159.2,384l 256.896-255.968C 430.944,109.92, 429.632,83.552, 413.056,67.104
	L 413.056,67.104z"  />
<glyph unicode="&#xe025;" d="M 64,64l0,64 l 384.032,0 l0-64 L 64,64 L 64,64z M 64,256l 384.032,0 l0-64 L 64,192 L 64,256 L 64,256z M 64,384l 384.032,0 L 448.032,320 L 64,320 L 64,384 L 64,384z"  />
<glyph unicode="&#xe026;" d="M 256,480C 114.624,480,0,365.376,0,224s 114.624-256, 256-256s 256,114.624, 256,256S 397.376,480, 256,480L 256,480z M 383.968,192L 288,192 l0-95.968 L 224,96.032 L 224,192 L 128,192 L 128,256 l 96,0 L 224,352 l 64,0 l0-96 l 95.968,0 L 383.968,192 L 383.968,192z"  />
<glyph unicode="&#xe027;" d="M 256,480C 114.624,480,0,365.376,0,224s 114.624-256, 256-256s 256,114.624, 256,256S 397.376,480, 256,480L 256,480z M 383.968,192L 128,192 L 128,256 l 255.968,0 L 383.968,192 L 383.968,192z"  />
<glyph unicode="&#xe028;" d="M 352,64l0,64 l 64,0 l0-64 L 352,64 L 352,64z M 352,256l 64,0 l0-64 l-64,0 L 352,256 L 352,256z M 352,384l 64,0 L 416,320 l-64,0 L 352,384 L 352,384z M 224,128l 64,0 l0-64 L 224,64 
	L 224,128 L 224,128z M 224,256l 64,0 l0-64 L 224,192 L 224,256 L 224,256z M 224,384l 64,0 L 288,320 L 224,320 L 224,384 L 224,384z M 96,128L 160,128 l0-64 L 96,64 L 96,128 L 96,128z M 96,256L 160,256 l0-64 L 96,192 L 96,256 L 96,256z M 96,384L 160,384 L 160,320 L 96,320 L 96,384 L 96,384z"  />
<glyph unicode="&#xe029;" d="M 191.968,64l0,64 l 256.064,0 l0-64 L 191.968,64 L 191.968,64z M 191.968,256l 256.064,0 l0-64 L 191.968,192 L 191.968,256 L 191.968,256z M 191.968,384
	l 256.064,0 L 448.032,320 L 191.968,320 L 191.968,384 L 191.968,384z M 64,128l 64,0 l0-64 L 64,64 L 64,128 L 64,128z M 64,256l 64,0 l0-64 L 64,192 L 64,256 L 64,256z M 64,384l 64,0 L 128,320 L 64,320 L 64,384 L 64,384z"  />
<glyph unicode="&#xe02b;" d="M 288.032,352L 288.032,432 l 160-128l-160-128l0,96 C 207.712,261.888, 145.568,210.944, 145.568,128c0-83.008, 174.432-144.032, 174.432-144.032
	C 205.856-5.728, 80,59.232, 80,176C 80,292.832, 173.824,341.728, 288.032,352L 288.032,352z"  />
<glyph unicode="&#xe031;" d="M 128,480C 186.912,480, 256,384.032, 256,384.032S 256,299.712, 256,288l0,0l0,0l 64-64l0,0
	c 11.712,0, 96.032,0, 96.032,0S 512,154.944, 512,96.032c0-12.544-2.336-24.384-5.664-35.776l-90.304,67.776l0,0l-47.648-15.648l-16.416-48.416
	l 67.776-90.304C 408.352-29.664, 396.512-32, 383.968-32C 325.056-32, 256,63.968, 256,63.968S 256,148.288, 256,160L 192,224C 180.288,224, 95.968,224, 95.968,224
	S0,293.088,0,352l0,0 c0,12.512, 2.336,24.352, 5.664,35.744L 96,320L 144,336L 160,384L 92.256,474.336C 103.648,477.664, 115.488,480, 128,480"  />
<glyph unicode="&#xe03a;" d="M 256,480C 114.624,480,0,365.376,0,224s 114.624-256, 256-256s 256,114.624, 256,256S 397.376,480, 256,480L 256,480z M 351.968,160L 224,160 L 224,192 L 224,224 L 224,352 l 64,0 l0-128 l 63.968,0 L 351.968,160 L 351.968,160z"  />
<glyph unicode="&#xe03c;" d="M 256,480C 114.624,480,0,365.376,0,224s 114.624-256, 256-256s 256,114.624, 256,256S 397.376,480, 256,480L 256,480z M 192,120l0,208 L 383.968,224L 192,120L 192,120z"  />
<glyph unicode="&#xe03d;" d="M 288,416L 288,480 L 127.968,368.032L 288,256L 288,320 c 81.664,0, 128.032-36.992, 128.032-112c0-82.336-61.696-144.032-144.032-144.032c-82.336,0-144.032,77.696-144.032,160.032
	L 32,224 c0-129.6, 110.464-256, 240-256c 129.6,0, 240,110.4, 240,240C 512,330.368, 407.616,405.216, 288,416L 288,416z"  />
<glyph unicode="&#xe03e;" d="M 192,96.032c 36.576,0 70.4,10.752 99.456,28.512L 448-32l 64,64l -156.544,156.544
	C 373.216,217.6, 384,251.424, 384,288c0,106.048, -85.952,192, -192,192c -106.048,0, -192-85.952, -192-192C 0,181.952, 85.952,96.032, 192,96.032L 192,96.032z M 192,384
	C 244.992,384, 288,341.024, 288,288c0-52.992, -43.008-96, -96-96c -52.96,0, -96.032,43.008, -96.032,96C 95.968,341.024, 139.040,384, 192,384L 192,384z"  />
<glyph unicode="&#xe000;" d="M 256-32c-141.376,0-256,114.624-256,256s 114.624,256, 256,256s 256-114.624, 256-256S 397.376-32, 256-32L 256-32z
	 M 338.688,352.512L 256,269.856L 173.344,352.512L 127.424,306.624l 82.656-82.688l-82.624-82.624l 45.856-45.888L 256,178.112l 82.688-82.688l 45.856,45.888L 301.888,223.936
	l 82.688,82.688L 338.688,352.512L 338.688,352.512z"  />
<glyph unicode="&#xe011;" d="M 256,200.64L 32,332L 32,352 C 32,369.696, 46.336,384, 64,384l 384.032,0 c 17.632,0, 31.936-14.304, 31.936-32l0-20 L 256,200.64L 256,200.64z M 448.032,64L 64,64 
	C 46.336,64, 32,78.304, 32,96L 32,310.016 l 224-173.344l 223.968,173.344L 479.968,96 C 479.968,78.304, 465.664,64, 448.032,64L 448.032,64z"  />
<glyph unicode="&#xe012;" d="M 416.032,112.384c-128.032,0-100.096,79.968-100.096,79.968c 15.232,21.184, 27.424,34.688, 35.648,63.744C 351.744,256.096, 351.84,256, 351.968,256
	c 32,0, 50.144,96, 9.248,96C 354.336,425.12, 310.080,479.968, 256,480C 201.888,479.968, 157.664,425.12, 150.752,352C 109.888,352, 128,256, 160,256
	c 0.128,0, 0.256,0.096, 0.384,0.096c 8.224-29.056, 20.448-42.56, 35.68-63.744c0,0, 27.936-79.968-100.096-79.968c-52.512,0-83.52-54.144-92.896-108.96
	c-1.504-8.8, 0.992-17.824, 6.752-24.672C 15.552-28.032, 24-32, 32.96-32L 256-32 l 223.040,0 c 8.96,0, 17.408,3.968, 23.168,10.752
	c 5.76,6.848, 8.256,15.84, 6.752,24.672C 499.52,58.208, 468.512,112.384, 416.032,112.384L 416.032,112.384z"  />
<glyph unicode="&#xe013;" d="M 511.296,256l0-15.52 C 507.936,216.32, 495.36,192, 479.232,192c-0.128,0-0.256,0.096-0.384,0.096c-8.224-29.056-20.48-42.56-35.648-63.712
	c0,0-18.56-54.048, 46.112-73.184c 12.992-3.872, 21.984-15.808, 21.984-29.376l0-26.144 c0-17.536-14.176-31.648-31.648-31.648l-79.584,0 l0,67.328 
	c0,52.768-35.552,99.328-86.496,113.248c-2.432,0.672-4.224,1.728-6.464,2.528c-21.024,19.936-22.336,47.84-13.44,68.672
	c 27.616,19.136, 43.264,58.464, 43.264,96.928c0,18.944-4.128,35.552-12.192,49.216c-3.136,5.376-7.008,9.952-11.168,14.080
	C 332.128,402.464, 356.512,416, 383.264,416c 54.144-0.032, 98.304-54.944, 105.28-128.032C 504.32,288, 511.232,273.6, 512,256L 511.296,256 L 511.296,256z M 160-32L 32-32 
	c-17.664,0-32,14.336-32,32l0,45.152 c0,34.016, 22.336,64.128, 54.976,73.984c 63.84,19.36, 45.12,73.184, 45.12,73.184
	C 84.864,213.536, 72.64,227.040, 64.416,256.096C 64.224,256.096, 64.192,256, 64,256C 32,256, 13.888,352, 54.72,352C 61.632,425.12, 105.856,479.968, 160,480
	c 54.112-0.032, 98.336-54.88, 105.248-128C 306.144,352, 288,256, 256,256C 255.872,256, 255.744,256.096, 255.552,256.096c-8.16-29.056-20.448-42.56-35.616-63.744
	c0,0, 2.88-68.704, 80.928-90.080c 30.208-8.224, 51.104-35.616, 51.104-66.944L 351.968-32 L 160-32 L 160-32z"  />
<glyph unicode="&#xe016;" d="M 416,31.968L 416,128L 352,128L 352,31.968L 288,31.968L 288,192L 352,192L 352,256L 160,256L 160,192L 224,192L 224,31.968L 160,31.968L 160,128L 96,128L 96,31.968L 32,31.968L 32,192L 96,192L 96,320L 224,320L 224,384L 160,384L 160,448L 352,448L 352,384L 288,384L 288,320L 416,320L 416,192L 479.968,192L 479.968,31.968L 416,31.968 z"  />
<glyph unicode="&#xe03b;" d="M 448,256l0-288 L 288-32 l0,160.032 L 224,128.032 L 224-32 L 64-32 L 64,256 L0,256 l 256,224l 256-224L 448,256 L 448,256z M 192,224L 128,224 l0-64 l 64,0 L 192,224L 192,224z M 320,224l0-64 l 64,0 L 384,224 L 320,224 z"  />
<glyph unicode="&#xe01b;" d="M 64,352L 64,384 c0,17.728, 14.304,32, 32,32l 96,0 l0,32c0,17.664, 14.336,32, 32,32l 64,0 c 17.664,0, 32-14.336, 32-32l0-32 l 96.032,0 C 433.696,416, 448,401.696, 448,383.968L 448,352 L 64,352 L 64,352z
	 M 416-32L 96-32 L 96,288 l 320,0 L 416-32 L 416-32z M 224,224L 160,224 l0-192.032 l 64,0 L 224,224 L 224,224z M 288,224l0-192.032 l 64,0 L 352,224 L 288,224 z"  />
<glyph unicode="&#xe021;" d="M 352,256L 352,448L 160,448L 160,256L 64,256L 256,0L 448.032,256L 352,256 z"  />
<glyph unicode="&#xe01e;" d="M 256-32c-141.376,0-256,114.624-256,256s 114.624,256, 256,256s 256-114.624, 256-256S 397.376-32, 256-32L 256-32z M 256,96c 17.664,0, 32,14.272, 32,32c0,17.664-14.336,32-32,32
	s-32-14.336-32-32C 224,110.272, 238.336,96.032, 256,96L 256,96z M 261.376,359.392c-39.904,0-76.96-15.264-77.344-71.328l 40.416,0 
	c 0.416,28.416, 17.376,30.208, 36.928,30.208c 23.072,0, 36.416-11.296, 36.416-31.584c0-16.128-11.904-19.776-23.424-27.072
	c-16.864-9.92-42.688-21.664-42.688-59.68C 231.648,190.72, 232,192.768, 232,192l 46.656,0 L 278.56,200.192c 1.152,14.976, 7.648,21.504, 26.112,31.904
	c 16.096,9.568, 35.264,23.2, 35.264,54.656C 339.936,335.040, 306.688,359.392, 261.376,359.392L 261.376,359.392z"  />
<glyph unicode="&#xe039;" d="M 256,368L 32,144L 112,64L 256,208.032L 399.968,64L 479.968,144L 256,368 z"  />
<glyph unicode="&#xe038;" d="M 256,80.032L 32,304L 112,384L 256,240L 399.968,384L 479.968,304L 256,80.032 z"  />
<glyph unicode="&#xe037;" d="M 416,176L 352,112L 256,208.032L 160,112L 96,176L 256,336L 416,176 z"  />
<glyph unicode="&#xe036;" d="M 416,272L 352,336L 256,240L 160,336L 96,272L 256,112L 416,272 z"  />
<glyph unicode="&#xe035;" d="M 399.968,224L 176,0.032L 96,80.032L 240,224L 96,368L 176,448L 399.968,224 z"  />
<glyph unicode="&#xe034;" d="M 112,224L 336,0.032L 416,80.032L 271.968,224L 416,368L 336,448L 112,224 z"  />
<glyph unicode="&#xe033;" d="M 208,64L 144,128L 240,224L 144,320L 208,384L 368.032,224L 208,64 z"  />
<glyph unicode="&#xe032;" d="M 304,64L 368.032,128L 271.968,224L 368.032,320L 304,384L 144,224L 304,64 z"  />
<glyph unicode="&#xe030;" d="M 128,384L 128,64L 384,224L 128,384 z"  />
<glyph unicode="&#xe02f;" d="M 384,384L 384,64L 128,224L 384,384 z"  />
<glyph unicode="&#xe005;" d="M 160,336L 160,112L 352,224L 160,336 z"  />
<glyph unicode="&#xe006;" d="M 352,336L 352,112L 160,224L 352,336 z"  />
<glyph unicode="&#xe004;" d="M 368.032,128L 144,128L 256,320L 368.032,128 z"  />
<glyph unicode="&#xe007;" d="M 368.032,320L 144,320L 256,128L 368.032,320 z"  />
<glyph unicode="&#xe02e;" d="M 368.032,224L 191.968,48L 144,96L 271.968,224L 144,352L 191.968,400L 368.032,224 z"  />
<glyph unicode="&#xe02d;" d="M 144,224L 320.032,48L 368.032,96L 240,224L 368.032,352L 320.032,400L 144,224 z"  />
<glyph unicode="&#xe02c;" d="M 512,224l-95.968,0 L 416,320L 160,320 l0-64 L0,368.032L 160,480l0-64 l 352,0 L 512,224 L 512,224z M 96,192l0-64 l 256,0 L 352,192 l 160-112.032L 352-32l0,64 L0,32 L0,192 L 96,192 L 96,192z"  />
<glyph unicode="&#xe022;" d="M 272,127.2L 160,288l 64,0 L 224,448 l 96.032,0 l0-160 l 64,0 L 272,127.2L 272,127.2z M 128,0L 32,0 l0,96 L 32,256 l 96,0 l0-160 l 288,0 L 416,256 l 96,0 l0-160 l0-96 L 128,0 L 128,0z"  />
<glyph unicode="&#xe02a;" d="M 224,352L 224,432 l-160-128l 160-128l0,96 c 80.32-10.112, 142.464-61.056, 142.464-144c0-83.008-174.432-144.032-174.432-144.032c 114.144,10.304, 240,75.264, 240,192.032
	C 432,292.832, 338.176,341.728, 224,352L 224,352z"  />
<glyph unicode="&#xe017;" d="M 269.088,65.12c-74.432-80.672-206.016-47.808-206.016-47.808c 62.656,15.168, 75.296,49.472, 74.496,76.32C 74.4,127.52, 32,187.328, 32,256
	C 32,362.048, 132.256,448, 256,448C 379.712,448, 480,362.048, 480,256C 480,153.792, 386.56,71.104, 269.088,65.12L 269.088,65.12z"  />
<glyph unicode="&#x20;" horiz-adv-x="256" />
</font>
</defs>
</svg>
